<svg width="93" height="66" viewBox="0 0 93 66" fill="none" xmlns="http://www.w3.org/2000/svg">
<path d="M85.8907 48.18C85.8484 48.4874 85.7779 48.7948 85.7074 49.1022C84.9174 52.372 82.8862 55.1247 80.9114 57.7796C78.7532 60.6861 76.4398 63.5506 73.7456 65.982C73.2942 66.3872 67.6518 59.8197 67.271 59.3586C64.7601 56.3963 62.0377 53.1265 60.9939 49.2699C59.8513 45.0779 61.3465 40.6903 64.3511 37.6161C65.0705 36.8755 68.3007 33.7595 73.3224 33.7036C80.9678 33.6198 87.0615 40.83 85.9048 48.18H85.8907Z" fill="#2D368F"/>
<path d="M93 34.8215L46.8597 0L0 34.8215V43.0798L46.8597 8.25824L93 43.0798V34.8215Z" fill="#2DA9E1"/>
<path d="M20.0029 39.9778H13.0205V33.7037H32.007V39.9778H25.0246V64.6267H19.9888V39.9778H20.0029Z" fill="#2DA9E1"/>
<path d="M36.5908 33.7037H47.0715C49.9773 33.7037 52.1919 34.7517 53.7577 36.8477C55.0695 38.6223 55.7184 40.9699 55.7184 43.9182V44.0021C55.7184 46.5033 55.267 48.5574 54.3642 50.1224C53.4473 51.7014 52.2765 52.8612 50.8095 53.5878L56.4096 64.6267H50.5133L45.6045 54.7336H41.6407V64.6267H36.6049V33.7037H36.5908ZM46.7329 48.7251C47.9743 48.7251 48.9335 48.3338 49.5964 47.5234C50.2594 46.7269 50.5979 45.6649 50.5979 44.3374V44.2536C50.5979 42.7864 50.2453 41.6825 49.5541 40.9419C48.8629 40.2013 47.8896 39.838 46.6342 39.838H41.6266V48.7111H46.7329V48.7251Z" fill="#2DA9E1"/>
<path d="M79.6569 56.5225L77.8655 53.5043C77.7808 53.3645 77.668 53.2667 77.5551 53.1829C78.74 52.3445 79.6851 51.1428 80.1929 49.6616C81.4907 45.9028 79.4594 41.8086 75.6649 40.537C71.8705 39.2515 67.7374 41.2636 66.4538 45.0225C65.1702 48.7813 67.1873 52.8755 70.9818 54.147C72.5758 54.678 74.2261 54.6361 75.6931 54.147C75.679 54.3287 75.7073 54.5243 75.8201 54.706L77.6115 57.7242C77.8796 58.1714 78.4579 58.3111 78.8952 58.0596L79.3325 57.808C79.7839 57.5426 79.9249 56.9697 79.671 56.5365L79.6569 56.5225Z" fill="#F2F2F2"/>
<path d="M73.3383 53.4903C76.7116 53.4903 79.4462 50.7814 79.4462 47.4399C79.4462 44.0983 76.7116 41.3894 73.3383 41.3894C69.965 41.3894 67.2305 44.0983 67.2305 47.4399C67.2305 50.7814 69.965 53.4903 73.3383 53.4903Z" fill="#29ABE2"/>
<path d="M79.4449 57.7103C79.4449 57.7103 79.5436 57.6264 79.5859 57.5705L79.1204 56.788L78.5703 55.8518L78.2882 55.3907C78.1753 55.251 78.0484 55.1112 77.9355 54.9715C77.992 55.1531 78.0625 55.3208 78.133 55.4885L78.4151 55.9496L78.9653 56.8858L79.459 57.7103H79.4449Z" fill="#2D368F"/>
<path d="M73.3365 49.1862C74.3103 49.1862 75.0997 48.4042 75.0997 47.4395C75.0997 46.4749 74.3103 45.6929 73.3365 45.6929C72.3627 45.6929 71.5732 46.4749 71.5732 47.4395C71.5732 48.4042 72.3627 49.1862 73.3365 49.1862Z" fill="#2D368F"/>
</svg>
