<svg width="186" height="41" viewBox="0 0 186 41" fill="none" xmlns="http://www.w3.org/2000/svg">
<path d="M55.4125 27.7401C55.3852 27.9171 55.3397 28.0941 55.2942 28.2711C54.7845 30.1537 53.474 31.7386 52.2 33.2672C50.8076 34.9406 49.3151 36.5899 47.5769 37.9897C47.2857 38.223 43.6454 34.4418 43.3997 34.1763C41.7798 32.4707 40.0234 30.5881 39.35 28.3676C38.6128 25.954 39.5775 23.4278 41.5159 21.6579C41.98 21.2315 44.0641 19.4374 47.3039 19.4052C52.2364 19.3569 56.1678 23.5083 55.4216 27.7401H55.4125Z" fill="#2D368F"/>
<path d="M60 20.0488L30.2321 0L0 20.0488V24.8035L30.2321 4.75474L60 24.8035V20.0488Z" fill="#2DA9E1"/>
<path d="M12.9042 23.0175H8.39941V19.4052H20.6488V23.0175H16.144V37.2093H12.8951V23.0175H12.9042Z" fill="#2DA9E1"/>
<path d="M23.6074 19.4052H30.3691C32.2439 19.4052 33.6726 20.0086 34.6828 21.2154C35.5292 22.2371 35.9478 23.5887 35.9478 25.2863V25.3346C35.9478 26.7747 35.6566 27.9573 35.0741 28.8584C34.4826 29.7675 33.7272 30.4352 32.7808 30.8536L36.3937 37.2093H32.5897L29.4227 31.5133H26.8654V37.2093H23.6165V19.4052H23.6074ZM30.1507 28.0539C30.9516 28.0539 31.5704 27.8286 31.9981 27.362C32.4259 26.9034 32.6443 26.2919 32.6443 25.5276V25.4794C32.6443 24.6346 32.4168 23.999 31.9708 23.5727C31.5249 23.1463 30.897 22.9371 30.087 22.9371H26.8563V28.0458H30.1507V28.0539Z" fill="#2DA9E1"/>
<path d="M51.3915 32.5433L50.2357 30.8055C50.1811 30.725 50.1083 30.6687 50.0355 30.6204C50.7999 30.1377 51.4097 29.4458 51.7373 28.593C52.5745 26.4289 51.264 24.0716 48.816 23.3395C46.3679 22.5993 43.7015 23.7578 42.8733 25.922C42.0452 28.0862 43.3466 30.4434 45.7946 31.1756C46.823 31.4813 47.8877 31.4571 48.8342 31.1756C48.8251 31.2801 48.8433 31.3928 48.9161 31.4974L50.0719 33.2351C50.2448 33.4926 50.6179 33.573 50.9 33.4282L51.1821 33.2834C51.4734 33.1306 51.5644 32.8007 51.4006 32.5513L51.3915 32.5433Z" fill="#F2F2F2"/>
<path d="M47.3155 30.7974C49.4918 30.7974 51.2561 29.2378 51.2561 27.3139C51.2561 25.3899 49.4918 23.8303 47.3155 23.8303C45.1392 23.8303 43.375 25.3899 43.375 27.3139C43.375 29.2378 45.1392 30.7974 47.3155 30.7974Z" fill="#29ABE2"/>
<path d="M51.255 33.2271C51.255 33.2271 51.3187 33.1789 51.346 33.1467L51.0457 32.6962L50.6908 32.1571L50.5088 31.8916C50.436 31.8112 50.3541 31.7307 50.2812 31.6503C50.3177 31.7549 50.3632 31.8514 50.4087 31.9479L50.5907 32.2134L50.9456 32.7525L51.2641 33.2271H51.255Z" fill="#2D368F"/>
<path d="M47.3134 28.3194C47.9416 28.3194 48.4509 27.8691 48.4509 27.3137C48.4509 26.7583 47.9416 26.308 47.3134 26.308C46.6851 26.308 46.1758 26.7583 46.1758 27.3137C46.1758 27.8691 46.6851 28.3194 47.3134 28.3194Z" fill="#2D368F"/>
<path d="M67.989 25H66.247L67.911 16.238H70.108L71.265 19.579C71.616 20.697 71.85 21.607 72.058 22.569H72.097C72.136 21.672 72.266 20.71 72.5 19.423L73.098 16.238H74.853L73.189 25H71.252L70.03 21.503C69.64 20.32 69.406 19.514 69.172 18.448H69.133C69.042 19.306 68.834 20.554 68.574 21.932L67.989 25ZM76.5692 16.238H78.4412L77.7912 19.657H80.9632L81.6132 16.238H83.4982L81.8342 25H79.9622L80.6512 21.321H77.4662L76.7772 25H74.9052L76.5692 16.238ZM88.5034 22.725H85.9814L84.9544 25H82.9524L87.2164 16.238H89.6214L90.6484 25H88.6724L88.5034 22.725ZM86.5274 21.295H88.4254L88.2434 19.41C88.2174 18.929 88.1654 18.227 88.1264 17.694H88.1004C87.8794 18.227 87.6324 18.903 87.3984 19.41L86.5274 21.295ZM86.2284 14.119H88.2824L89.2834 15.744H87.7364L86.2284 14.119ZM95.5723 25L96.9243 17.876H94.6103L94.9353 16.238H101.448L101.136 17.876H98.7963L97.4443 25H95.5723ZM100.855 25L102.493 16.394C103.078 16.251 103.962 16.173 104.833 16.173C105.665 16.173 106.523 16.29 107.134 16.68C107.706 17.018 108.109 17.577 108.109 18.383C108.109 19.683 107.251 20.502 106.12 20.866V20.905C106.64 21.139 106.874 21.711 106.952 22.504C107.069 23.492 107.134 24.636 107.29 25H105.366C105.288 24.766 105.197 24.012 105.119 22.933C105.028 21.867 104.664 21.542 103.923 21.542H103.351L102.701 25H100.855ZM104.092 17.707L103.637 20.138H104.404C105.418 20.138 106.159 19.527 106.159 18.669C106.159 17.954 105.574 17.642 104.82 17.642C104.469 17.642 104.248 17.668 104.092 17.707ZM113.608 16.095C115.922 16.095 117.144 17.655 117.144 19.748C117.144 21.347 116.585 22.907 115.584 23.882C114.765 24.675 113.66 25.143 112.347 25.143C110.072 25.143 108.798 23.531 108.798 21.49C108.798 19.904 109.383 18.331 110.41 17.343C111.229 16.563 112.347 16.095 113.608 16.095ZM113.387 17.655C112.802 17.655 112.282 17.902 111.879 18.318C111.177 19.007 110.787 20.372 110.787 21.425C110.787 22.66 111.346 23.583 112.62 23.583C113.179 23.583 113.686 23.349 114.089 22.946C114.778 22.257 115.155 20.814 115.155 19.8C115.155 18.708 114.765 17.655 113.387 17.655ZM111.671 27.821C111.164 27.821 110.774 27.405 110.774 26.937C110.774 26.43 111.177 26.04 111.684 26.04C112.178 26.04 112.555 26.43 112.555 26.937C112.555 27.405 112.178 27.821 111.671 27.821ZM119.974 25L121.638 16.238H123.484L122.743 20.151H122.782C123.042 19.774 123.315 19.462 123.562 19.15L125.993 16.238H128.333L124.784 20.021L126.812 25H124.784L123.315 21.191L122.379 22.075L121.82 25H119.974ZM133.635 19.709L133.336 21.282H130.229L129.826 23.401H133.323L133.024 25H127.642L129.306 16.238H134.493L134.181 17.837H130.879L130.515 19.709H133.635ZM131.698 14.171H133.037L133.895 15.77H132.621L132.27 14.951H132.244L131.464 15.77H130.06L131.698 14.171ZM134.701 13.131H136.248L134.493 14.587H133.557L134.701 13.131ZM135.943 25L137.295 17.876H134.981L135.306 16.238H141.819L141.507 17.876H139.167L137.815 25H135.943ZM145.342 25H143.6L145.264 16.238H147.461L148.618 19.579C148.969 20.697 149.203 21.607 149.411 22.569H149.45C149.489 21.672 149.619 20.71 149.853 19.423L150.451 16.238H152.206L150.542 25H148.605L147.383 21.503C146.993 20.32 146.759 19.514 146.525 18.448H146.486C146.395 19.306 146.187 20.554 145.927 21.932L145.342 25ZM157.445 16.095C159.759 16.095 160.981 17.655 160.981 19.748C160.981 21.347 160.422 22.907 159.408 23.882C158.602 24.675 157.497 25.143 156.184 25.143C153.909 25.143 152.635 23.531 152.635 21.49C152.635 19.904 153.22 18.331 154.247 17.343C155.066 16.563 156.184 16.095 157.445 16.095ZM157.211 17.655C156.639 17.655 156.119 17.902 155.716 18.318C155.014 19.007 154.624 20.372 154.624 21.425C154.624 22.66 155.183 23.583 156.457 23.583C157.016 23.583 157.523 23.349 157.926 22.946C158.615 22.257 158.992 20.814 158.992 19.8C158.992 18.708 158.602 17.655 157.211 17.655ZM157.25 14.184H158.589L159.447 15.77H158.173L157.822 14.951H157.796L157.016 15.77H155.612L157.25 14.184ZM160.253 13.131H161.787L160.032 14.6H159.096L160.253 13.131ZM163.049 16.238H164.921L163.257 25H161.385L163.049 16.238Z" fill="#4267B1"/>
<path d="M73.1023 33H72.2358C72.2263 32.7467 72.1742 32.5241 72.0795 32.3324C71.9848 32.1406 71.857 31.9796 71.696 31.8494C71.5374 31.7169 71.3551 31.6174 71.1491 31.5511C70.9432 31.4848 70.723 31.4517 70.4886 31.4517C70.0388 31.4517 69.6127 31.5665 69.2102 31.7962C68.8078 32.0234 68.4633 32.3584 68.1768 32.8011C67.8904 33.2415 67.6951 33.7812 67.5909 34.4205C67.4867 35.0407 67.5021 35.5627 67.6371 35.9865C67.772 36.4103 67.9957 36.7311 68.3082 36.9489C68.6207 37.1667 68.9924 37.2756 69.4233 37.2756C69.6719 37.2756 69.9157 37.2424 70.1548 37.1761C70.3963 37.1098 70.6212 37.0116 70.8295 36.8814C71.0402 36.7488 71.2273 36.5866 71.3906 36.3949C71.5563 36.2008 71.6866 35.9782 71.7812 35.7273H72.6619C72.5317 36.099 72.3554 36.4316 72.1328 36.7251C71.9126 37.0187 71.6581 37.2685 71.3693 37.4744C71.0805 37.678 70.7692 37.8331 70.4354 37.9396C70.1016 38.0462 69.7547 38.0994 69.3949 38.0994C68.7652 38.0994 68.2289 37.9455 67.7862 37.6378C67.3459 37.3277 67.031 36.8897 66.8416 36.3239C66.6546 35.7557 66.625 35.0833 66.7528 34.3068C66.8807 33.5492 67.1257 32.8958 67.4879 32.3466C67.8501 31.795 68.294 31.3712 68.8196 31.0753C69.3452 30.777 69.9157 30.6278 70.5312 30.6278C70.9006 30.6278 71.2403 30.6811 71.5504 30.7876C71.8606 30.8942 72.1304 31.0504 72.3601 31.2564C72.5897 31.46 72.7685 31.7086 72.8963 32.0021C73.0265 32.2933 73.0952 32.6259 73.1023 33ZM74.9657 34.7188L74.426 38H73.5879L74.7953 30.7273H75.6333L75.193 33.3977H75.264C75.4345 33.1136 75.6618 32.8887 75.9458 32.723C76.2323 32.5573 76.5922 32.4744 77.0254 32.4744C77.3947 32.4744 77.706 32.549 77.9593 32.6982C78.215 32.8449 78.3949 33.071 78.4991 33.3764C78.6056 33.6795 78.621 34.0653 78.5453 34.5341L77.9629 38H77.1248L77.693 34.5909C77.764 34.1577 77.706 33.8227 77.519 33.5859C77.3343 33.3468 77.0467 33.2273 76.6561 33.2273C76.3815 33.2273 76.1258 33.2853 75.889 33.4013C75.6547 33.5173 75.4558 33.6866 75.2924 33.9091C75.1315 34.1316 75.0225 34.4015 74.9657 34.7188ZM81.087 38.1278C80.7414 38.1278 80.4383 38.0627 80.1779 37.9325C79.9175 37.8 79.7246 37.6094 79.5991 37.3608C79.4736 37.1098 79.4393 36.8068 79.4961 36.4517C79.5505 36.1392 79.6559 35.8859 79.8121 35.6918C79.9684 35.4953 80.1578 35.3414 80.3803 35.2301C80.6052 35.1165 80.8467 35.0324 81.1048 34.978C81.3652 34.9212 81.6244 34.8774 81.8825 34.8466C82.2186 34.804 82.4921 34.7708 82.7028 34.7472C82.9135 34.7235 83.0721 34.6844 83.1786 34.63C83.2852 34.5755 83.3503 34.482 83.3739 34.3494V34.321C83.4308 33.973 83.3846 33.7019 83.2354 33.5078C83.0863 33.3113 82.82 33.2131 82.4364 33.2131C82.0387 33.2131 81.7061 33.3007 81.4386 33.4759C81.171 33.651 80.9734 33.8381 80.8455 34.0369L80.1069 33.7528C80.301 33.4214 80.533 33.1634 80.8029 32.9787C81.0728 32.7917 81.3557 32.6615 81.6516 32.5881C81.9476 32.5123 82.2328 32.4744 82.5075 32.4744C82.6826 32.4744 82.8803 32.4957 83.1005 32.5384C83.3207 32.5786 83.5266 32.6626 83.7184 32.7905C83.9125 32.9183 84.0581 33.1113 84.1552 33.3693C84.2546 33.6274 84.2688 33.973 84.1978 34.4062L83.6012 38H82.7631L82.891 37.2614H82.8484C82.7726 37.3797 82.6566 37.5064 82.5004 37.6413C82.3465 37.7763 82.1512 37.8911 81.9144 37.9858C81.68 38.0805 81.4042 38.1278 81.087 38.1278ZM81.3285 37.375C81.6599 37.375 81.9499 37.3099 82.1985 37.1797C82.4495 37.0495 82.6507 36.8814 82.8022 36.6754C82.9561 36.4695 83.052 36.2528 83.0898 36.0256L83.2177 35.2585C83.1751 35.3011 83.091 35.3402 82.9656 35.3757C82.8401 35.4089 82.698 35.4384 82.5394 35.4645C82.3832 35.4882 82.2305 35.5095 82.0813 35.5284C81.9345 35.545 81.8162 35.5592 81.7262 35.571C81.5037 35.5994 81.2918 35.6456 81.0906 35.7095C80.8917 35.7711 80.7236 35.8646 80.5863 35.9901C80.4513 36.1132 80.3673 36.2812 80.3342 36.4943C80.2844 36.7855 80.3543 37.0057 80.5437 37.1548C80.7331 37.3016 80.9947 37.375 81.3285 37.375ZM80.8313 31.8636L82.4933 30.571H83.2745L84.5103 31.8636H83.4876L82.7915 31.1108L81.8683 31.8636H80.8313ZM84.2688 30.9972L85.1779 29.7188H86.2148L85.0075 30.9972H84.2688ZM88.4121 32.5455L88.2985 33.2557H85.4718L85.5854 32.5455H88.4121ZM86.6223 31.2386H87.4604L86.5939 36.4375C86.556 36.6742 86.562 36.8518 86.6117 36.9702C86.6638 37.0862 86.7419 37.1643 86.8461 37.2045C86.9526 37.2424 87.0674 37.2614 87.1905 37.2614C87.2828 37.2614 87.3586 37.2566 87.4178 37.2472C87.477 37.2353 87.5243 37.2259 87.5598 37.2188L87.6167 37.9716C87.5527 37.9929 87.4663 38.0142 87.3574 38.0355C87.2509 38.0592 87.1195 38.071 86.9632 38.071C86.7265 38.071 86.504 38.0201 86.2956 37.9183C86.0873 37.8165 85.9275 37.6615 85.8162 37.4531C85.705 37.2448 85.6754 36.982 85.7275 36.6648L86.6223 31.2386ZM91.6898 38L92.8972 30.7273H93.7779L92.6983 37.2188H96.079L95.9512 38H91.6898ZM103.039 32.304H103.778C103.721 32.6638 103.625 32.9657 103.49 33.2095C103.355 33.451 103.159 33.6333 102.901 33.7564C102.645 33.8771 102.303 33.9375 101.874 33.9375L101.974 33.3551C102.27 33.3551 102.485 33.3196 102.62 33.2486C102.758 33.1752 102.852 33.0616 102.904 32.9077C102.956 32.7514 103.001 32.5502 103.039 32.304ZM101.008 35.7699L101.548 32.5455H102.386L101.477 38H100.639L100.795 37.0767H100.738C100.568 37.3537 100.33 37.5893 100.024 37.7834C99.7189 37.9751 99.3603 38.071 98.9483 38.071C98.6074 38.071 98.3162 37.9964 98.0748 37.8473C97.8356 37.6958 97.6652 37.4685 97.5634 37.1655C97.464 36.8601 97.4521 36.4754 97.5279 36.0114L98.1103 32.5455H98.9483L98.3801 35.9545C98.3162 36.3523 98.3766 36.6695 98.5613 36.9062C98.7459 37.143 99.0123 37.2614 99.3603 37.2614C99.5686 37.2614 99.7888 37.2081 100.021 37.1016C100.255 36.995 100.463 36.8317 100.646 36.6115C100.83 36.3913 100.951 36.1108 101.008 35.7699ZM108.834 32.1335H109.615C109.523 32.6733 109.332 33.1018 109.043 33.419C108.754 33.7363 108.315 33.8949 107.726 33.8949L107.825 33.2983C108.062 33.2983 108.246 33.2498 108.376 33.1527C108.506 33.0556 108.604 32.9195 108.67 32.7443C108.737 32.5691 108.791 32.3655 108.834 32.1335ZM105.673 38.1136C105.171 38.1136 104.751 37.9941 104.413 37.755C104.074 37.5159 103.835 37.1809 103.695 36.75C103.558 36.3191 103.536 35.8172 103.628 35.2443C103.718 34.6856 103.897 34.1991 104.164 33.7848C104.434 33.3681 104.769 33.0462 105.169 32.8189C105.571 32.5893 106.014 32.4744 106.497 32.4744C106.999 32.4744 107.418 32.5952 107.754 32.8366C108.093 33.0758 108.332 33.4119 108.472 33.8452C108.611 34.276 108.635 34.7803 108.543 35.358C108.453 35.9119 108.272 36.3961 107.999 36.8104C107.729 37.2223 107.394 37.5431 106.994 37.7727C106.597 38 106.156 38.1136 105.673 38.1136ZM105.688 37.3608C106.071 37.3608 106.404 37.2625 106.685 37.0661C106.969 36.8696 107.199 36.6103 107.374 36.2884C107.552 35.9664 107.671 35.6184 107.733 35.2443C107.79 34.8892 107.787 34.5589 107.726 34.2536C107.664 33.9458 107.533 33.6984 107.332 33.5114C107.13 33.322 106.848 33.2273 106.483 33.2273C106.099 33.2273 105.764 33.3267 105.478 33.5256C105.194 33.7244 104.964 33.986 104.789 34.3104C104.614 34.6347 104.497 34.9839 104.438 35.358C104.381 35.7131 104.382 36.0433 104.441 36.3487C104.503 36.6518 104.634 36.8968 104.835 37.0838C105.039 37.2685 105.323 37.3608 105.688 37.3608ZM105.446 39.7898C105.283 39.7898 105.142 39.7341 105.023 39.6229C104.907 39.5116 104.849 39.3778 104.849 39.2216C104.849 39.0653 104.907 38.9316 105.023 38.8203C105.142 38.709 105.283 38.6534 105.446 38.6534C105.609 38.6534 105.749 38.709 105.865 38.8203C105.983 38.9316 106.043 39.0653 106.043 39.2216C106.043 39.3778 105.983 39.5116 105.865 39.6229C105.749 39.7341 105.609 39.7898 105.446 39.7898ZM110.796 34.7188L110.256 38H109.418L110.327 32.5455H111.137L110.995 33.3977H111.066C111.236 33.1207 111.467 32.8982 111.758 32.7301C112.049 32.5597 112.401 32.4744 112.813 32.4744C113.177 32.4744 113.485 32.5502 113.736 32.7017C113.989 32.8509 114.168 33.0781 114.272 33.3835C114.379 33.6866 114.394 34.0701 114.319 34.5341L113.736 38H112.898L113.466 34.5909C113.537 34.1648 113.482 33.831 113.299 33.5895C113.119 33.348 112.834 33.2273 112.444 33.2273C112.174 33.2273 111.924 33.2853 111.694 33.4013C111.467 33.5173 111.274 33.6866 111.115 33.9091C110.959 34.1316 110.853 34.4015 110.796 34.7188ZM117.128 40.1591C116.721 40.1591 116.38 40.107 116.106 40.0028C115.831 39.901 115.611 39.7661 115.445 39.598C115.279 39.4323 115.154 39.2547 115.069 39.0653L115.822 38.5966C115.878 38.696 115.952 38.8097 116.042 38.9375C116.132 39.0677 116.268 39.1802 116.45 39.2749C116.635 39.3719 116.894 39.4205 117.228 39.4205C117.666 39.4205 118.049 39.3139 118.378 39.1009C118.707 38.8878 118.911 38.554 118.989 38.0994L119.16 36.9915H119.089C119.013 37.0909 118.907 37.214 118.773 37.3608C118.638 37.5052 118.456 37.6342 118.229 37.7479C118.002 37.8591 117.711 37.9148 117.356 37.9148C116.913 37.9148 116.534 37.8106 116.219 37.6023C115.904 37.3939 115.678 37.0909 115.541 36.6932C115.406 36.2955 115.386 35.8125 115.481 35.2443C115.573 34.6856 115.751 34.1991 116.013 33.7848C116.278 33.3681 116.605 33.0462 116.993 32.8189C117.382 32.5893 117.805 32.4744 118.265 32.4744C118.62 32.4744 118.892 32.5336 119.081 32.652C119.273 32.768 119.413 32.9006 119.501 33.0497C119.588 33.1965 119.654 33.3172 119.699 33.4119H119.785L119.927 32.5455H120.736L119.813 38.1562C119.735 38.625 119.566 39.0062 119.305 39.2997C119.045 39.5956 118.725 39.8123 118.346 39.9496C117.968 40.0893 117.562 40.1591 117.128 40.1591ZM117.569 37.1619C117.903 37.1619 118.2 37.085 118.46 36.9311C118.723 36.7772 118.941 36.5559 119.113 36.267C119.286 35.9782 119.406 35.6326 119.472 35.2301C119.538 34.8371 119.534 34.4903 119.458 34.1896C119.382 33.889 119.239 33.6534 119.028 33.483C118.82 33.3125 118.546 33.2273 118.208 33.2273C117.85 33.2273 117.541 33.3172 117.281 33.4972C117.023 33.6771 116.814 33.9186 116.653 34.2216C116.492 34.5246 116.38 34.8608 116.319 35.2301C116.257 35.6089 116.26 35.9439 116.326 36.2351C116.392 36.5239 116.527 36.7512 116.731 36.9169C116.937 37.0803 117.216 37.1619 117.569 37.1619ZM130.083 33C130.047 32.7609 129.986 32.5466 129.898 32.3572C129.813 32.1655 129.699 32.0033 129.557 31.8707C129.415 31.7358 129.244 31.6328 129.042 31.5618C128.844 31.4884 128.613 31.4517 128.35 31.4517C127.919 31.4517 127.502 31.563 127.1 31.7855C126.7 32.008 126.353 32.3359 126.059 32.7692C125.768 33.2024 125.571 33.7339 125.466 34.3636C125.362 34.9934 125.373 35.5249 125.498 35.9581C125.626 36.3913 125.845 36.7192 126.155 36.9418C126.468 37.1643 126.849 37.2756 127.299 37.2756C127.715 37.2756 128.104 37.1868 128.464 37.0092C128.823 36.8293 129.125 36.576 129.369 36.2493C129.613 35.9202 129.77 35.5331 129.841 35.0881L130.097 35.1449H127.91L128.052 34.3636H130.822L130.68 35.1449C130.585 35.7462 130.374 36.2682 130.047 36.7109C129.721 37.1536 129.314 37.4957 128.826 37.7372C128.338 37.9787 127.805 38.0994 127.228 38.0994C126.584 38.0994 126.044 37.9479 125.608 37.6449C125.173 37.3419 124.866 36.911 124.689 36.3523C124.511 35.7936 124.486 35.1307 124.614 34.3636C124.706 33.7884 124.867 33.2711 125.097 32.8118C125.329 32.3501 125.613 31.9571 125.949 31.6328C126.288 31.3085 126.666 31.0599 127.082 30.8871C127.501 30.7143 127.943 30.6278 128.407 30.6278C128.79 30.6278 129.138 30.6858 129.451 30.8018C129.766 30.9155 130.037 31.0777 130.264 31.2884C130.491 31.4967 130.668 31.7464 130.793 32.0376C130.919 32.3265 130.985 32.6473 130.992 33H130.083ZM131.947 38L132.856 32.5455H133.694L132.785 38H131.947ZM133.531 31.6222C133.368 31.6222 133.227 31.5665 133.108 31.4553C132.992 31.344 132.934 31.2102 132.934 31.054C132.934 30.8977 132.992 30.764 133.108 30.6527C133.227 30.5414 133.368 30.4858 133.531 30.4858C133.694 30.4858 133.834 30.5414 133.95 30.6527C134.068 30.764 134.128 30.8977 134.128 31.054C134.128 31.2102 134.068 31.344 133.95 31.4553C133.834 31.5665 133.694 31.6222 133.531 31.6222ZM135.911 38.1278C135.566 38.1278 135.263 38.0627 135.002 37.9325C134.742 37.8 134.549 37.6094 134.423 37.3608C134.298 37.1098 134.263 36.8068 134.32 36.4517C134.375 36.1392 134.48 35.8859 134.636 35.6918C134.793 35.4953 134.982 35.3414 135.205 35.2301C135.429 35.1165 135.671 35.0324 135.929 34.978C136.189 34.9212 136.449 34.8774 136.707 34.8466C137.043 34.804 137.316 34.7708 137.527 34.7472C137.738 34.7235 137.896 34.6844 138.003 34.63C138.109 34.5755 138.174 34.482 138.198 34.3494V34.321C138.255 33.973 138.209 33.7019 138.06 33.5078C137.911 33.3113 137.644 33.2131 137.261 33.2131C136.863 33.2131 136.53 33.3007 136.263 33.4759C135.995 33.651 135.798 33.8381 135.67 34.0369L134.931 33.7528C135.125 33.4214 135.357 33.1634 135.627 32.9787C135.897 32.7917 136.18 32.6615 136.476 32.5881C136.772 32.5123 137.057 32.4744 137.332 32.4744C137.507 32.4744 137.705 32.4957 137.925 32.5384C138.145 32.5786 138.351 32.6626 138.543 32.7905C138.737 32.9183 138.882 33.1113 138.979 33.3693C139.079 33.6274 139.093 33.973 139.022 34.4062L138.425 38H137.587L137.715 37.2614H137.673C137.597 37.3797 137.481 37.5064 137.325 37.6413C137.171 37.7763 136.975 37.8911 136.739 37.9858C136.504 38.0805 136.228 38.1278 135.911 38.1278ZM136.153 37.375C136.484 37.375 136.774 37.3099 137.023 37.1797C137.274 37.0495 137.475 36.8814 137.626 36.6754C137.78 36.4695 137.876 36.2528 137.914 36.0256L138.042 35.2585C137.999 35.3011 137.915 35.3402 137.79 35.3757C137.664 35.4089 137.522 35.4384 137.364 35.4645C137.207 35.4882 137.055 35.5095 136.906 35.5284C136.759 35.545 136.64 35.5592 136.55 35.571C136.328 35.5994 136.116 35.6456 135.915 35.7095C135.716 35.7711 135.548 35.8646 135.411 35.9901C135.276 36.1132 135.192 36.2812 135.158 36.4943C135.109 36.7855 135.179 37.0057 135.368 37.1548C135.557 37.3016 135.819 37.375 136.153 37.375ZM137.104 31.8068L138.241 30.1591H139.221L137.843 31.8068H137.104ZM142.881 38L144.089 30.7273H146.546C147.114 30.7273 147.564 30.8232 147.895 31.0149C148.229 31.2067 148.455 31.4706 148.574 31.8068C148.694 32.143 148.719 32.5265 148.648 32.9574C148.577 33.3835 148.426 33.7623 148.194 34.0938C147.964 34.4252 147.652 34.6856 147.256 34.875C146.863 35.0644 146.385 35.1591 145.822 35.1591H143.833L143.975 34.3636H145.935C146.323 34.3636 146.645 34.3068 146.901 34.1932C147.157 34.0795 147.356 33.9174 147.498 33.7067C147.64 33.496 147.734 33.2462 147.782 32.9574C147.829 32.6638 147.816 32.4093 147.743 32.1939C147.672 31.9761 147.526 31.808 147.306 31.6896C147.088 31.5689 146.783 31.5085 146.39 31.5085H144.841L143.762 38H142.881ZM146.844 34.733L148.094 38H147.072L145.85 34.733H146.844ZM151.378 38.1136C150.855 38.1136 150.423 37.9976 150.082 37.7656C149.741 37.5312 149.503 37.2045 149.368 36.7855C149.233 36.3641 149.212 35.8741 149.304 35.3153C149.397 34.7566 149.58 34.2642 149.855 33.8381C150.129 33.4096 150.471 33.0758 150.881 32.8366C151.291 32.5952 151.74 32.4744 152.23 32.4744C152.515 32.4744 152.788 32.5218 153.051 32.6165C153.314 32.7112 153.541 32.8651 153.733 33.0781C153.924 33.2888 154.058 33.5682 154.134 33.9162C154.21 34.2642 154.205 34.6927 154.12 35.2017L154.063 35.5568H149.858L149.972 34.8324H153.324C153.379 34.5246 153.364 34.25 153.282 34.0085C153.201 33.767 153.06 33.5765 152.859 33.4368C152.66 33.2971 152.408 33.2273 152.103 33.2273C151.788 33.2273 151.494 33.3125 151.222 33.483C150.95 33.651 150.722 33.8641 150.54 34.1222C150.358 34.3778 150.244 34.6383 150.199 34.9034L150.1 35.5284C150.029 35.9806 150.039 36.3404 150.132 36.608C150.226 36.8755 150.391 37.0684 150.625 37.1868C150.86 37.3028 151.153 37.3608 151.506 37.3608C151.731 37.3608 151.938 37.33 152.127 37.2685C152.317 37.2045 152.486 37.1098 152.635 36.9844C152.784 36.8565 152.91 36.6979 153.012 36.5085L153.779 36.7358C153.649 37.0104 153.465 37.2519 153.228 37.4602C152.994 37.6662 152.719 37.8272 152.404 37.9432C152.092 38.0568 151.75 38.1136 151.378 38.1136ZM152.657 31.8068H151.961L152.088 31.0398C152.337 31.0256 152.517 30.9912 152.628 30.9368C152.739 30.8823 152.806 30.7983 152.827 30.6847C152.848 30.5568 152.788 30.4633 152.646 30.4041C152.506 30.3449 152.33 30.3153 152.117 30.3153L152.245 29.7756C152.735 29.7756 153.09 29.8608 153.31 30.0312C153.533 30.2017 153.623 30.429 153.58 30.7131C153.537 30.9545 153.43 31.1309 153.257 31.2422C153.086 31.3535 152.905 31.4233 152.713 31.4517L152.657 31.8068Z" fill="#5690CC"/>
</svg>
